# xmcd CD database file generated by Grip 3.0.0
# 
# Track frame offsets:
#       150
#       21343
#       47874
#       70035
#       88076
#       107824
#       121875
#       148224
#       169996
#       191198
#       206460
#       226992
#       248468
#       266456
# 
# Disc length: 4028 seconds
# 
# Revision: 1
# Processed by: cddbd v1.4PL0 Copyright (c) Steve Scherf et al.
# Submitted via: Grip 3.0.0
# 
DISCID=c80fba0e
DTITLE=John Mayall and The Bluesbreakers - Stories
DYEAR=1900
DGENRE=Blues
TTITLE0=Southside story
TTITLE1=Dirty water
TTITLE2=Feels just like home
TTITLE3=Kids got the blues
TTITLE4=The witching hour
TTITLE5=Oh, leadbelly
TTITLE6=Demons in the night
TTITLE7=Pride and faith
TTITLE8=Kokomo
TTITLE9=Romance classified
TTITLE10=I wished I had
TTITLE11=Pieces and parts
TTITLE12=I thought I heard the devil
TTITLE13=The mists of time
EXTD=ID3G: 0
EXTT0=
EXTT1=
EXTT2=
EXTT3=
EXTT4=
EXTT5=
EXTT6=
EXTT7=
EXTT8=
EXTT9=
EXTT10=
EXTT11=
EXTT12=
EXTT13=
PLAYORDER=
